<svg class="svg-icon" style="width: 1.107421875em; height: 1em;vertical-align: middle;fill: currentColor;overflow: hidden;" viewBox="0 0 1134 1024" version="1.1" xmlns="http://www.w3.org/2000/svg"><path d="M283.955401 251.27106a22.645251 22.645251 0 0 1-22.403773-19.801179l-12.878816-103.030526a22.61842 22.61842 0 0 1 44.861208-5.607651l12.878816 103.030526a22.591589 22.591589 0 0 1-19.613363 25.221014 20.525612 20.525612 0 0 1-2.844072 0.187816zM915.822295 601.601677a22.591589 22.591589 0 0 1-3.917306-44.861208c65.06485-11.537272 90.232202-57.149745 86.314895-97.261889-2.387947-24.147779-16.500983-48.510206-42.714738-48.510206h-1.314713a22.61842 22.61842 0 0 1-0.429294-45.210009c47.517464-0.992742 84.195257 35.792375 89.454108 89.319953 5.768636 58.86692-30.399371 129.700406-123.421984 146.174558a22.269619 22.269619 0 0 1-3.970968 0.348801z" fill="#464646" /><path d="M884.161873 831.327551a26.106433 26.106433 0 0 1-2.870903-0.160985 22.591589 22.591589 0 0 1-19.559701-25.274676l7.056518-55.754539c0-0.429294 0-0.831757 0.187816-1.261051A93.908031 93.908031 0 0 1 925.508238 678.820909c131.471243-52.05188 174.400629-164.714686 158.94605-253.283375-13.227617-75.314241-65.279497-125.300144-132.651802-127.312459a22.591589 22.591589 0 0 1-21.733001-25.462491l19.237731-150.038203a22.591589 22.591589 0 0 1 44.834377 5.768636l-16.286336 126.909996c77.541203 12.744661 135.656858 74.106852 151.111437 162.326739 18.781606 106.625861-31.794576 241.692441-186.796489 303.188786A48.295559 48.295559 0 0 0 913.541671 756.630421l-6.976025 55.056937a22.591589 22.591589 0 0 1-22.403773 19.640193z" fill="#464646" /><path d="M621.407203 251.27106a1101.943666 1101.943666 0 0 1-160.985196-11.242133 22.61842 22.61842 0 0 1 6.654055-44.727054 1055.472606 1055.472606 0 0 0 154.30431 10.732347c211.963841 0 327.712197-53.125115 327.712197-80.492598s-115.667863-80.492598-327.712197-80.492598-327.685366 53.125115-327.685366 80.492598c0 7.834613 15.052116 27.662623 72.040875 46.658876a22.61842 22.61842 0 1 1-14.300852 42.929385c-68.311385-22.779405-102.950033-52.910468-102.950033-89.56143C248.511827 43.144032 436.113242 0 621.407203 0s372.949037 43.144032 372.949037 125.648945-187.628246 125.622115-372.949037 125.622115zM814.05282 849.975003a22.591589 22.591589 0 0 1-1.26105-45.156347c192.967588-10.946993 276.35792-60.691419 276.357919-83.65864 0-8.800524-15.213101-28.977335-72.309184-48.698022a22.591589 22.591589 0 1 1 14.783808-42.714739c68.17723 23.5575 102.735386 54.305673 102.735385 91.412761 0 81.699987-171.878527 120.443757-319.072658 128.788156z" fill="#464646" /><path d="M638.927758 1024h-140.110782c-153.821355 0-301.095978-22.886729-393.957605-61.254867a22.537927 22.537927 0 0 1-12.476353-12.771492c0-0.268309-16.09852-39.65602-61.496345-69.894406a22.591589 22.591589 0 0 1 25.060029-37.563212 222.213232 222.213232 0 0 1 74.241006 81.753648c88.112564 34.236185 224.896319 54.573981 368.629268 54.573982h140.110782c143.732949 0 280.516704-20.337796 368.629268-54.573982A222.213232 222.213232 0 0 1 1081.798032 842.489192a22.591589 22.591589 0 0 1 25.060029 37.563212c-45.344164 30.238386-61.389021 69.626097-61.523176 70.001729a22.967221 22.967221 0 0 1-12.449522 12.664169c-92.861627 38.394969-240.163081 61.281698-393.957605 61.281698z" fill="#464646" /><path d="M465.868673 926.764942a1140.472789 1140.472789 0 0 1-139.520504-8.04926C201.235841 903.100118 48.782861 813.61918 12.829501 678.579431c-28.709027-107.725927-8.720031-215.63967 54.788628-295.998113 61.442683-77.809511 154.062832-118.994891 261.037495-116.070326 138.098467 3.756321 202.546207 77.407048 228.679471 121.007205 38.09983 63.535491 43.278187 143.46464 13.200786 203.619442a22.591589 22.591589 0 0 1-40.434115-20.203642c23.342853-46.685707 18.781606-109.550426-11.537273-160.18027-36.892441-61.523176-104.774532-96.591118-191.143089-99.032726-92.164025-2.46844-171.95902 32.599502-224.306039 98.871741-54.600812 69.08948-71.58475 162.514555-46.605215 256.342094 29.75543 111.696895 163.346312 192.940757 275.311516 206.946469 135.522704 16.957107 279.041006 0.160985 280.328888 0a22.61842 22.61842 0 0 1 5.366173 44.888039 1388.631469 1388.631469 0 0 1-151.648054 7.995598z" fill="#464646" /><path d="M164.987341 726.25788a22.645251 22.645251 0 0 1-22.61842-22.61842 232.811424 232.811424 0 0 1 421.861706-135.844674 22.61842 22.61842 0 0 1-36.704624 26.401572 187.601415 187.601415 0 0 0-339.947072 109.443102 22.61842 22.61842 0 0 1-22.59159 22.61842z" fill="#464646" /><path d="M375.153515 796.313271a22.591589 22.591589 0 0 1-22.591589-22.61842 145.369632 145.369632 0 0 1 145.208646-145.208646 143.840273 143.840273 0 0 1 62.167117 13.95205 22.61842 22.61842 0 0 1-19.371886 40.863409 98.710756 98.710756 0 0 0-42.795231-9.60545 100.105961 100.105961 0 0 0-99.998637 99.998637 22.591589 22.591589 0 0 1-22.61842 22.61842zM611.748091 918.903498a22.61842 22.61842 0 0 1 0-45.210009 56.210664 56.210664 0 1 0 0-112.421329h-61.442683a22.61842 22.61842 0 0 1 0-45.210009H611.748091a101.420673 101.420673 0 0 1 0 202.841347z" fill="#464646" /></svg>