<?xml version="1.0" encoding="UTF-8" standalone="no"?>
<!-- Created with Inkscape (http://www.inkscape.org/) -->

<svg
   width="97.172287mm"
   height="127.31829mm"
   viewBox="0 0 97.172286 127.31829"
   version="1.1"
   id="svg1"
   xml:space="preserve"
   inkscape:version="1.3.2 (091e20e, 2023-11-25, custom)"
   sodipodi:docname="menu.svg"
   xmlns:inkscape="http://www.inkscape.org/namespaces/inkscape"
   xmlns:sodipodi="http://sodipodi.sourceforge.net/DTD/sodipodi-0.dtd"
   xmlns="http://www.w3.org/2000/svg"
   xmlns:svg="http://www.w3.org/2000/svg"><sodipodi:namedview
     id="namedview1"
     pagecolor="#ffffff"
     bordercolor="#000000"
     borderopacity="0.25"
     inkscape:showpageshadow="2"
     inkscape:pageopacity="0.0"
     inkscape:pagecheckerboard="0"
     inkscape:deskcolor="#d1d1d1"
     inkscape:document-units="mm"
     inkscape:zoom="0.78305976"
     inkscape:cx="188.36366"
     inkscape:cy="245.83053"
     inkscape:window-width="1920"
     inkscape:window-height="1057"
     inkscape:window-x="-8"
     inkscape:window-y="-8"
     inkscape:window-maximized="1"
     inkscape:current-layer="layer1" /><defs
     id="defs1" /><g
     inkscape:label="Layer 1"
     inkscape:groupmode="layer"
     id="layer1"
     transform="translate(-17.559691,-2.4866913)"><path
       style="fill:#030303;stroke:none"
       d="m 96.429708,118.13354 c 3.674042,3.59822 11.125672,12.64007 16.584152,7.13261 2.11363,-2.1326 1.57423,-5.39791 1.57423,-8.12759 V 98.233936 34.057727 16.396833 c 0,-2.437949 0.58377,-5.744129 -0.60036,-7.9596496 -3.76856,-7.050996 -10.42072,-0.647688 -14.075592,2.5580846 -0.82762,0.725921 -2.07274,2.382617 -3.23369,2.512212 -1.28235,0.143145 -3.09493,-2.207938 -3.97992,-2.974965 -3.06904,-2.6599576 -7.013,-8.0458236 -11.44227,-8.0458236 -4.20262,0 -8.35581,5.290196 -11.19352,7.9341206 -0.90117,0.83962 -2.67253,3.061716 -3.97992,3.061716 -1.30741,0 -3.07876,-2.222096 -3.97992,-3.061716 -2.83773,-2.6439326 -6.9909,-7.9341206 -11.19353,-7.9341206 -4.43327,0 -8.37257,5.384302 -11.44227,8.0458236 -0.88473,0.767087 -2.69776,3.118087 -3.97992,2.974965 -1.16113,-0.12961 -2.40582,-1.786344 -3.23368,-2.512212 -3.2367,-2.8379456 -7.22118,-7.6911456 -11.9388,-4.8555146 -2.9317,1.762159 -2.73716,4.7736446 -2.73716,7.7696296 v 18.407129 69.151108 16.66592 c 0,2.63874 -0.32675,5.36451 1.81607,7.33337 4.64267,4.26576 9.47429,-1.20093 12.85989,-4.17051 0.82762,-0.72593 2.07271,-2.38262 3.23368,-2.5122 1.28235,-0.14315 3.09493,2.20793 3.97992,2.97495 3.06905,2.65996 7.013,8.04583 11.44227,8.04583 4.20261,0 8.35582,-5.29019 11.19353,-7.93412 0.90115,-0.83963 2.67252,-3.06171 3.97992,-3.06171 1.19234,0 2.65374,1.85427 3.48243,2.60011 2.72194,2.44979 5.37882,5.39534 8.45733,7.39344 5.31772,3.45146 10.3939,-3.21619 13.92972,-6.39846 1.51383,-1.36247 3.29345,-2.60385 4.47741,-4.2707 M 108.86696,11.421933 V 120.86973 c -4.65339,-1.97024 -7.65886,-9.38976 -13.432232,-8.37556 -3.8223,0.67145 -7.63678,5.72364 -10.44729,8.19783 -0.89061,0.78404 -2.42774,2.86167 -3.73118,2.8289 -1.29204,-0.0325 -3.06837,-2.30324 -3.97992,-3.13004 -2.72003,-2.46713 -6.43699,-7.23735 -10.19854,-7.89669 -4.63853,-0.81305 -9.12954,5.12214 -12.18851,7.89669 -0.91155,0.8268 -2.68787,3.09756 -3.97992,3.13004 -1.30344,0.0328 -2.84056,-2.04486 -3.73117,-2.8289 -2.81051,-2.47419 -6.62501,-7.52638 -10.44729,-8.19783 -5.83493,-1.02502 -8.68573,6.53668 -13.43223,8.37556 V 11.421933 c 4.65337,1.970253 7.65888,9.389782 13.43223,8.375566 3.82228,-0.67147 7.63678,-5.723632 10.44729,-8.197836 0.89059,-0.784023 2.42775,-2.8616676 3.73117,-2.8288966 1.29205,0.03248 3.06837,2.3032436 3.97992,3.1300356 2.72005,2.467144 6.43697,7.237342 10.19855,7.896697 4.63851,0.813075 9.12955,-5.12216 12.1885,-7.896697 0.91155,-0.826792 2.68787,-3.0975536 3.97992,-3.1300356 1.30344,-0.03277 2.84057,2.0448586 3.73118,2.8288966 2.81051,2.474204 6.625,7.526366 10.44729,8.197836 5.834922,1.025033 8.685722,-6.536714 13.432232,-8.375566 M 37.477138,45.37044 c -2.72072,0.562652 -3.56743,4.428918 -0.74259,5.565092 2.15855,0.868186 5.40829,0.2856 7.70745,0.2856 h 16.66592 c 2.23932,0 5.96783,0.705805 7.93642,-0.519755 2.91155,-1.812609 0.7774,-5.221944 -1.96654,-5.42767 -6.14588,-0.46078 -12.49133,-0.02246 -18.65588,-0.02246 -3.47232,0 -7.54223,-0.584461 -10.94478,0.119188 m -0.24855,17.929217 c -2.78665,0.734659 -3.04351,4.664447 -0.24798,5.5841 4.01839,1.321936 9.95483,0.247015 14.17751,0.247015 h 30.84438 9.9498 c 1.45519,0 3.22626,0.175369 4.39181,-0.887688 1.52662,-1.392396 0.89311,-4.000681 -0.91303,-4.776636 -2.70981,-1.164185 -7.26871,-0.305556 -10.1949,-0.305556 h -32.83434 c -4.63463,0 -10.69559,-1.041711 -15.17325,0.138765 m 0,17.903498 c -2.8166,0.687958 -3.02058,4.678126 -0.24798,5.590242 4.01839,1.321936 9.95483,0.247014 14.17751,0.247014 h 30.84438 9.9498 c 1.45519,0 3.22626,0.17537 4.39181,-0.887687 1.50429,-1.37203 0.9203,-4.059217 -0.91303,-4.7966 -2.77205,-1.114935 -7.22825,-0.285593 -10.1949,-0.285593 h -32.58559 c -4.76529,0 -10.79612,-0.997242 -15.422,0.132624 z"
       id="path3" /></g></svg>
