<?xml version="1.0" encoding="UTF-8" standalone="no"?>
<!-- Created with Inkscape (http://www.inkscape.org/) -->

<svg
   width="123.66205mm"
   height="89.876678mm"
   viewBox="0 0 123.66205 89.876677"
   version="1.1"
   id="svg1"
   xml:space="preserve"
   xmlns="http://www.w3.org/2000/svg"
   xmlns:svg="http://www.w3.org/2000/svg"><defs
     id="defs1" /><g
     id="layer1"
     transform="translate(-3.6613373,-21.420968)"><path
       style="fill:#000000;stroke:none;stroke-width:0.757888"
       d="m 120.15056,64.094939 c -0.51562,2.165725 -0.46388,4.597347 -0.61952,6.817829 -0.26188,3.736499 -0.73889,7.48173 -0.78492,11.22937 -0.049,3.995175 -0.43362,8.033677 -0.6087,12.031459 -0.0965,2.203664 -0.51863,4.46583 0.22869,6.617303 1.67137,4.81178 7.31547,4.34335 8.65319,-0.40104 0.57508,-2.039635 0.1597,-3.956788 0.14977,-6.015734 -0.0232,-4.816823 -0.45553,-9.636814 -0.7843,-14.437759 -0.8627,-12.597555 -1.2211,-25.046246 -1.2211,-37.698588 V 26.596873 c 0,-0.893542 0.53211,-4.627806 -0.81308,-4.661888 -0.88783,-0.02251 -1.56067,1.228551 -1.98853,1.854544 -1.44528,2.114544 -2.7322,4.442638 -3.69454,6.817828 -3.23113,7.974917 -3.12902,16.209609 -3.12902,24.664505 0,4.034319 -0.77223,8.808215 4.61206,8.823077 M 5.7618539,25.743257 c -1.4758,0.622195 -0.94536,3.212655 -1.10953,4.463056 -0.61554,4.687951 -0.79844,9.709298 -0.91459,14.437759 -0.0788,3.207024 -0.4421,6.030201 1.55886,8.82307 1.50561,2.101478 4.35935,3.08561 4.9515301,5.815211 0.76413,3.522146 -0.5243601,8.257981 -0.8646001,11.830936 -0.73646,7.733501 -1.34456,15.695747 -1.43694,23.461359 -0.0409,3.440249 0.0527,11.449972 5.8144301,9.580152 4.50767,-1.46286 3.69381,-8.357626 3.26564,-11.986445 -0.82591,-6.99982 -0.78492,-14.215539 -1.27834,-21.255587 -0.2481,-3.539836 -1.54859,-7.936615 -0.89091,-11.429893 0.56728,-3.013096 3.72649,-4.049955 5.29935,-6.416777 1.87544,-2.822139 1.26114,-5.869529 1.22342,-9.023599 -0.0545,-4.554647 -0.40368,-9.299987 -0.83536,-13.836186 -0.11427,-1.200767 0.22108,-3.71321 -0.99535,-4.405821 -2.48612,-1.415537 -2.20589,2.787571 -2.17607,4.004769 0.0998,4.071365 0.42819,8.159297 0.60653,12.231988 0.0544,1.243436 0.41205,3.712399 -1.61209,3.661893 -1.8414,-0.04593 -1.80464,-2.378569 -1.80472,-3.661893 -2.6e-4,-4.040049 0.0576,-8.200647 -0.21847,-12.231988 -0.0955,-1.394771 0.0651,-5.033419 -2.37952,-4.089864 -1.43371,0.553364 -0.98508,2.693274 -1.01438,3.889342 -0.0931,3.798396 -0.39811,7.6292 -0.39811,11.429893 0,1.425352 0.45152,4.387298 -1.6043501,4.654923 -2.09632,0.272885 -1.8065,-2.397282 -1.80457,-3.652306 0.006,-4.078777 0.59502,-8.155447 0.60157,-12.231988 0.002,-1.2741 0.54895,-5.129648 -1.98343,-4.062004"
       id="path2" /><path
       id="path7"
       style="fill:#000000;stroke-width:3.70417;stroke-linecap:round;stroke-linejoin:round;paint-order:stroke markers fill"
       d="M 67.079614,21.420969 A 44.938568,44.938568 0 0 0 22.141274,66.359312 44.938568,44.938568 0 0 0 67.079614,111.29765 44.938568,44.938568 0 0 0 112.01847,66.359312 44.938568,44.938568 0 0 0 67.079614,21.420969 Z m 0,8.278047 A 36.660412,36.660412 0 0 1 103.74043,66.359312 36.660412,36.660412 0 0 1 67.079614,103.01961 36.660412,36.660412 0 0 1 30.419324,66.359312 36.660412,36.660412 0 0 1 67.079614,29.699016 Z m 0,3.71657 A 32.943687,32.943687 0 0 0 34.135894,66.359312 32.943687,32.943687 0 0 0 67.079614,99.303038 32.943687,32.943687 0 0 0 100.02334,66.359312 32.943687,32.943687 0 0 0 67.079614,33.415586 Z" /></g></svg>
