<?xml version="1.0" encoding="UTF-8" standalone="no"?>
<svg
   width="385.10986"
   height="486.00006"
   viewBox="0 0 29.692895 37.471771"
   version="1.1"
   id="svg5"
   sodipodi:docname="cuenta.svg"
   xml:space="preserve"
   inkscape:version="1.3.2 (091e20e, 2023-11-25, custom)"
   xmlns:inkscape="http://www.inkscape.org/namespaces/inkscape"
   xmlns:sodipodi="http://sodipodi.sourceforge.net/DTD/sodipodi-0.dtd"
   xmlns="http://www.w3.org/2000/svg"
   xmlns:svg="http://www.w3.org/2000/svg"><sodipodi:namedview
     id="namedview1"
     pagecolor="#ffffff"
     bordercolor="#000000"
     borderopacity="0.25"
     inkscape:showpageshadow="2"
     inkscape:pageopacity="0.0"
     inkscape:pagecheckerboard="0"
     inkscape:deskcolor="#d1d1d1"
     inkscape:zoom="0.63945142"
     inkscape:cx="57.080176"
     inkscape:cy="169.67669"
     inkscape:window-width="1920"
     inkscape:window-height="1057"
     inkscape:window-x="-8"
     inkscape:window-y="-8"
     inkscape:window-maximized="1"
     inkscape:current-layer="svg5" /><defs
     id="defs5" /><g
     id="g21"
     transform="matrix(1.3945352,0,0,1.3945352,-5.1135856,-3.0831023)"><path
       id="rect1"
       style="fill:#000000;fill-opacity:1;stroke:none;stroke-width:0.0385512;stroke-linecap:round;stroke-linejoin:round;stroke-opacity:1;paint-order:stroke markers fill"
       d="m 14.371466,2.5046233 c -1.269337,0.00214 -2.353255,0.916842 -2.568775,2.167752 H 9.9252775 c -0.250495,0 -0.452073,0.2015781 -0.452073,0.4520731 V 5.576672 H 6.0553996 c -0.8693629,0 -1.5693049,0.699791 -1.5693049,1.5691544 V 27.218201 c 0,0.869367 0.699942,1.569305 1.5693049,1.569305 H 22.570824 c 0.869362,0 1.569154,-0.699938 1.569154,-1.569305 V 7.1458264 c 0,-0.8693634 -0.699792,-1.5691544 -1.569154,-1.5691544 H 19.269878 V 5.1244484 c 0,-0.250495 -0.201578,-0.4520731 -0.452073,-0.4520731 h -1.87395 C 16.728105,3.4201216 15.64217,2.5050061 14.371466,2.5046233 Z m 0,0.7193714 c 0.873925,7.56e-5 1.634058,0.5987927 1.838862,1.4483806 H 12.53938 C 12.743589,3.825241 13.500072,3.2271928 14.371466,3.2239947 Z M 10.096047,5.307416 h 8.433979 c 0.0668,0 0.120623,0.053824 0.120623,0.1206231 v 3.254414 c 0,0.066799 -0.05382,0.1206231 -0.120623,0.1206231 h -8.433979 c -0.0668,0 -0.1206228,-0.053824 -0.1206228,-0.1206231 v -3.254414 c 0,-0.066799 0.053824,-0.1206231 0.1206228,-0.1206231 z M 6.1459046,6.4207325 H 9.4732045 V 7.2949111 H 6.6582139 c -0.2180766,0 -0.3934933,0.1755673 -0.3934933,0.3936439 v 18.685586 c 0,0.218077 0.1754167,0.393644 0.3934933,0.393644 H 21.937741 c 0.218076,0 0.393644,-0.175567 0.393644,-0.393644 V 7.688555 c 0,-0.2180766 -0.175568,-0.3936439 -0.393644,-0.3936439 H 19.269878 V 6.4207325 h 3.210441 c 0.485269,0 0.875986,0.3905645 0.875986,0.8758351 V 27.06746 c 0,0.485273 -0.390717,0.875986 -0.875986,0.875986 H 6.1459046 c -0.4852709,0 -0.8759857,-0.390713 -0.8759857,-0.875986 V 7.2965676 c 0,-0.4852706 0.3907148,-0.8758351 0.8759857,-0.8758351 z m 1.1152742,1.6277341 h 2.2120257 v 0.9344148 c 0,0.2504951 0.201578,0.4522236 0.452073,0.4522236 h 8.8925275 c 0.250495,0 0.452073,-0.2017285 0.452073,-0.4522236 V 8.0484666 h 2.065049 c 0.117879,0 0.212784,0.094906 0.212784,0.2127845 V 25.801445 c 0,0.117879 -0.09491,0.212784 -0.212784,0.212784 H 7.2611788 c -0.1178785,0 -0.2127846,-0.09491 -0.2127846,-0.212784 V 8.2612511 c 0,-0.1178785 0.094906,-0.2127845 0.2127846,-0.2127845 z" /><rect
       style="fill:#000000;fill-opacity:1;stroke:#000000;stroke-width:0.0385512;stroke-linecap:round;stroke-linejoin:round;stroke-opacity:1;paint-order:stroke markers fill"
       id="rect5"
       width="9.7967873"
       height="0.90431893"
       x="9.4146423"
       y="11.086032"
       ry="0.45215946" /><rect
       style="fill:#000000;fill-opacity:1;stroke:#000000;stroke-width:0.0385512;stroke-linecap:round;stroke-linejoin:round;stroke-opacity:1;paint-order:stroke markers fill"
       id="rect6"
       width="9.7967873"
       height="0.90431893"
       x="9.4146423"
       y="13.339097"
       ry="0.45215946" /><rect
       style="fill:#000000;fill-opacity:1;stroke:#000000;stroke-width:0.0385512;stroke-linecap:round;stroke-linejoin:round;stroke-opacity:1;paint-order:stroke markers fill"
       id="rect7"
       width="9.7967873"
       height="0.90431893"
       x="9.4146423"
       y="15.592161"
       ry="0.45215946" /><rect
       style="fill:#000000;fill-opacity:1;stroke:#000000;stroke-width:0.0385512;stroke-linecap:round;stroke-linejoin:round;stroke-opacity:1;paint-order:stroke markers fill"
       id="rect8"
       width="9.7967873"
       height="0.90431893"
       x="9.4146423"
       y="17.845226"
       ry="0.45215946" /><path
       id="path21"
       style="fill:#000000;fill-opacity:1;stroke:none;stroke-width:0.0511578;stroke-linecap:round;stroke-linejoin:round;stroke-opacity:1;paint-order:stroke markers fill"
       d="m 14.313137,20.11891 a 2.4219213,2.4219213 0 0 0 -2.422004,2.422003 2.4219213,2.4219213 0 0 0 2.422004,2.421803 2.4219213,2.4219213 0 0 0 2.421802,-2.421803 2.4219213,2.4219213 0 0 0 -2.421802,-2.422003 z m 0.886269,1.394849 h 2e-4 c 0.109492,-0.0035 0.220265,0.03345 0.306746,0.111509 0.172947,0.156105 0.181241,0.41611 0.01858,0.582919 l -1.186621,1.216996 c -0.09036,0.09265 -0.213903,0.136197 -0.335524,0.130087 -0.127048,0.03474 -0.267485,-8.29e-4 -0.365498,-0.106307 L 13.09034,22.860248 c -0.1446,-0.155578 -0.140501,-0.401894 0.0094,-0.552345 0.149891,-0.150487 0.387,-0.146385 0.531562,0.0092 l 0.299154,0.322136 0.9698,-0.994581 c 0.08133,-0.0834 0.189662,-0.127446 0.299153,-0.130896 z" /></g></svg>
