<?xml version="1.0" encoding="UTF-8"?>
<svg width="192" height="192" viewBox="0 0 192 192" fill="none" xmlns="http://www.w3.org/2000/svg">
<rect width="192" height="192" fill="#dc3545"/>
<g transform="translate(40, 40)">
<path d="M56 112c30.93 0 56-25.07 56-56S86.93 0 56 0 0 25.07 0 56s25.07 56 56 56z" fill="white"/>
<path d="M56 16c22.09 0 40 17.91 40 40s-17.91 40-40 40-40-17.91-40-40 17.91-40 40-40z" fill="#dc3545"/>
<path d="M40 40h32v8H40zM40 56h32v8H40zM40 72h24v8H40z" fill="white"/>
</g>
</svg>
