<svg viewBox="0 0 123.66 89.88" xmlns="http://www.w3.org/2000/svg">
  <path fill="currentColor" d="M120.15 64.09c-.52 2.17-.46 4.6-.62 6.82-.26 3.74-.74 7.48-.78 11.23-.05 4-.43 8.03-.61 12.03-.1 2.2-.52 4.47.23 6.62 1.67 4.81 7.32 4.34 8.65-.4.58-2.04.16-3.96.15-6.02-.02-4.82-.46-9.64-.78-14.44-.86-12.6-1.22-25.05-1.22-37.7v-15.63c0-.89.53-4.63-.81-4.66-.89-.02-1.56 1.23-1.99 1.85-1.45 2.11-2.73 4.44-3.69 6.82-3.23 7.97-3.13 16.21-3.13 24.66 0 4.03-.77 8.81 4.61 8.82"/>
  <path fill="currentColor" d="M5.76 25.74c-1.48.62-.95 3.21-1.11 4.46-.62 4.69-.8 9.71-.91 14.44-.08 3.21-.44 6.03 1.56 8.82 1.51 2.1 4.36 3.09 4.95 5.82.76 3.52-.52 8.26-.86 11.83-.74 7.73-1.34 15.7-1.44 23.46-.04 3.44.05 11.45 5.81 9.58 4.51-1.46 3.69-8.36 3.27-11.99-.83-7-.78-14.22-1.28-21.26-.25-3.54-1.55-7.94-.89-11.43.57-3.01 3.73-4.05 5.3-6.42 1.88-2.82 1.26-5.87 1.22-9.02-.05-4.55-.4-9.3-.84-13.84-.11-1.2.22-3.71-.99-4.41-2.49-1.42-2.21 2.79-2.18 4 .1 4.07.43 8.16.61 12.23.05 1.24.41 3.71-1.61 3.66-1.84-.05-1.8-2.38-1.8-3.66 0-4.04.06-8.2-.22-12.23-.1-1.39.07-5.03-2.38-4.09-1.43.55-.99 2.69-1.01 3.89-.09 3.8-.4 7.63-.4 11.43 0 1.43.45 4.39-1.6 4.65-2.1.27-1.81-2.4-1.8-3.65 0-4.08.6-8.16.6-12.23 0-1.27.55-5.13-1.98-4.06"/>
  <path fill="currentColor" d="M67.08 21.42a44.94 44.94 0 0 0-44.94 44.94 44.94 44.94 0 0 0 44.94 44.94 44.94 44.94 0 0 0 44.94-44.94 44.94 44.94 0 0 0-44.94-44.94zm0 8.28a36.66 36.66 0 0 1 36.66 36.66 36.66 36.66 0 0 1-36.66 36.66 36.66 36.66 0 0 1-36.66-36.66 36.66 36.66 0 0 1 36.66-36.66zm0 3.72a32.94 32.94 0 0 0-32.94 32.94 32.94 32.94 0 0 0 32.94 32.94 32.94 32.94 0 0 0 32.94-32.94 32.94 32.94 0 0 0-32.94-32.94z"/>
</svg>
