<?xml version="1.0" encoding="UTF-8" standalone="no"?>
<svg
   width="354.80859"
   height="486.10461"
   viewBox="0 0 27.356595 37.479832"
   version="1.1"
   id="svg5"
   xmlns="http://www.w3.org/2000/svg"
   xmlns:svg="http://www.w3.org/2000/svg">
  <defs
     id="defs5" />
  <path
     style="fill:currentColor;stroke:none;stroke-width:0.276132"
     d="m 22.951369,6.9052407 c 0,-1.85789 0.71111,-5.32757 -1.0959,-6.50481002 -1.53315,-0.99882 -3.57759,0.12347 -5.11419,0.63567002 -3.96745,1.32248 -7.9397799,2.62707 -11.9087599,3.94523 -1.43109,0.47529 -3.68198,0.73125 -4.50424001,2.14309 -0.41818,0.71803 -0.31772,1.53954 -0.31772,2.33792 v 4.1644103 16.00012 4.31053 c 0,0.93264 -0.0657,1.80864 0.59801,2.55682 1.27799001,1.44064 4.09851001,0.877 5.83126001,0.877 H 21.197929 c 1.67957,0 4.29819,0.52176 5.53903,-0.877 0.64741,-0.72981 0.598,-1.57228 0.598,-2.48376 v -4.23747 -14.90422 -4.16441 c 0,-0.7405303 0.11357,-1.5679103 -0.18006,-2.2648603 -0.73676,-1.74878 -2.64734,-1.53426 -4.20353,-1.53426 m -2.11874,0 H 6.0745291 c 1.18694,-0.7469 2.97085,-1.04673 4.3105399,-1.46306 2.27667,-0.70749 4.50358,-1.59302 6.79457,-2.25268 0.83642,-0.24083 1.65833,-0.53879 2.48403,-0.81397 0.2785,-0.0928 0.72476,-0.32876 0.99116,-0.10176 0.29105,0.24801 0.1778,0.85904 0.1778,1.19766 v 3.43381 m -18.4031399,2.23588 c 0.41087,-0.17054 1.08568,-0.0441 1.52631,-0.0441 h 3.57993 12.3471199 3.94524 c 0.3647,0 1.08179,-0.14191 1.302,0.23 0.23128,0.39061 0.0861,1.1553503 0.0861,1.5965003 v 3.87217 14.46586 4.45665 c 0,0.39358 0.15873,1.22662 -0.30019,1.41712 -0.41087,0.17054 -1.08569,0.0441 -1.52631,0.0441 h -3.57994 -12.3471199 -3.94523 c -0.3647,0 -1.08179,0.14191 -1.302,-0.23 -0.23128,-0.39061 -0.0861,-1.15535 -0.0861,-1.5965 v -3.87217 -14.46586 -4.45665 c 0,-0.39359 -0.15873,-1.2266203 0.30019,-1.4171203 M 12.576859,13.699811 c -2.22211,0.28697 -4.1577799,1.76951 -5.1953099,3.72606 -0.32816,0.61883 -0.37294,1.36183 -0.68697,1.96179 -0.16698,0.31903 -0.63163,0.20512 -0.91116,0.3768 -0.66303,0.40724 -0.66304,1.41791 0,1.82514 0.3741,0.22977 0.89409,0.1468 1.31395,0.1468 h 2.84934 7.4521099 c 1.22354,0 2.50893,0.11387 3.72605,-0.008 0.86421,-0.0863 1.25106,-1.18404 0.64114,-1.80322 -0.29495,-0.29942 -0.86038,-0.17498 -1.08034,-0.4772 -0.3751,-0.51537 -0.40795,-1.4308 -0.72169,-2.02245 -1.03693,-1.95541 -2.97519,-3.43934 -5.19532,-3.72606 0,-0.39383 0.0415,-0.82555 -0.19748,-1.1658 -0.45269,-0.64455 -1.44822,-0.61223 -1.84166,0.0702 -0.19075,0.33087 -0.15266,0.72862 -0.15266,1.09561 m 5.8448,5.91785 H 8.9238691 c 0.67685,-5.00178 8.8204599,-5.00537 9.4977899,0 m -11.8357099,5.15287 c -0.99553,0.23022 -1.20972,1.63477 -0.21889,2.04477 0.44458,0.18397 0.99012,0.10835 1.46091,0.10835 h 2.9223999 c 0.52021,0 1.18817,0.10915 1.68038,-0.0839 0.95167,-0.37323 0.90128,-1.74357 -0.0731,-2.04917 -0.56722,-0.17791 -1.30966,-0.0587 -1.89956,-0.0587 -1.2095399,0 -2.6938099,-0.23383 -3.8721799,0.0387 m -0.21918,4.39154 c -1.00813,0.29185 -1.06143,1.7157 -0.073,2.07432 0.96759,0.35106 2.47972,0.0709 3.50682,0.0709 h 7.8174099 c 0.98353,0 2.88913,0.36306 3.71917,-0.21698 0.80696,-0.56391 0.42436,-1.81722 -0.50454,-1.95926 -1.0254,-0.1568 -2.17699,-0.0155 -3.21463,-0.0155 h -6.42927 -3.2146399 c -0.50406,0 -1.11994,-0.0945 -1.60732,0.0466 z"
     id="path1" />
</svg>
