<?xml version="1.0" encoding="UTF-8" standalone="no"?>
<!-- Created with Inkscape (http://www.inkscape.org/) -->

<svg
   width="54.651051mm"
   height="46.942905mm"
   viewBox="0 0 54.651051 46.942905"
   version="1.1"
   id="svg1"
   xml:space="preserve"
   xmlns="http://www.w3.org/2000/svg"
   xmlns:svg="http://www.w3.org/2000/svg"><defs
     id="defs1" /><g
     id="layer1"
     transform="translate(-94.935894,69.449947)"><path
       style="fill:#000000"
       d="m 114.98449,-37.059153 v -14.55208 h -7.01146 -7.01146 v -1.97832 -1.97832 l 21.43125,-0.009 21.43124,-0.009 v 1.98733 1.98734 h -7.01146 -7.01145 v 14.55208 14.55208 h -1.04939 -1.04938 l -0.0751,-2.84427 -0.0751,-2.84427 -5.09322,-0.0719 -5.09323,-0.0719 v 2.91613 2.91613 h -1.19062 -1.19063 z m 12.5677,-3.96875 v -10.45104 l -5.09322,-0.0719 -5.09323,-0.0719 v 10.59476 10.59476 l 5.09323,-0.0719 5.09322,-0.0719 z m -32.573724,17.80957 c 0.30254,-0.97765 1.23526,-7.21517 1.63446,-10.9304 0.67382,-6.271 0.38861,-21.65783 -0.57012,-30.75782 l -0.16028,-1.521349 h 0.93419 c 0.99397,0 1.07667,0.11314 1.3538,1.852079 0.13382,0.8397 0.64075,9.43394 1.08824,18.44941 l 0.17375,3.50045 5.460884,0.0714 5.46089,0.0714 0.77207,1.54495 c 1.08401,2.16914 1.24546,5.70333 0.4504,9.85897 -0.34236,1.78947 -0.56101,3.97983 -0.56101,5.61994 v 2.6876 h -1.02526 c -0.93663,0 -1.03956,-0.0715 -1.19063,-0.82682 -0.091,-0.45476 -0.16536,-1.46925 -0.16536,-2.25444 v -1.42761 l -5.35781,0.0716 -5.357824,0.0716 -0.41622,2.11666 -0.41621,2.11667 -1.12815,0.0825 c -0.9859,0.0721 -1.10945,0.022 -0.97981,-0.39688 z m 14.139764,-6.36634 c 0.58056,-2.77421 0.87544,-5.30649 0.79337,-6.81302 l -0.0865,-1.5875 -5.35781,-0.0716 c -4.976244,-0.0665 -5.358024,-0.0383 -5.360654,0.39687 -0.005,0.79484 -0.7742,7.83354 -0.94054,8.60444 l -0.157,0.7276 h 5.423054 5.42306 z m 24.38708,4.22395 c 0,-1.48226 -0.23585,-3.8803 -0.55172,-5.60958 -0.80036,-4.38177 -0.65708,-7.77229 0.41943,-9.92531 l 0.79375,-1.5875 4.89479,-0.16466 c 2.69214,-0.0906 5.13756,-0.17986 5.43428,-0.19844 0.52209,-0.0327 0.55444,-0.32586 1.0037,-9.09575 0.61075,-11.92207 0.81125,-13.979819 1.40439,-14.413539 0.36125,-0.26415 1.22958,-0.24944 1.59484,0.027 0.0245,0.0185 -0.12309,2.474279 -0.32792,5.457229 -1.14412,16.6616 -0.99992,23.56348 0.71031,33.99856 0.28619,1.74625 0.58547,3.39071 0.66506,3.65436 0.12632,0.41845 0.001,0.46888 -0.98344,0.39687 l -1.12815,-0.0825 -0.41622,-2.11667 -0.41622,-2.11666 -5.35782,-0.0716 -5.35781,-0.0716 -0.003,1.26225 c -0.002,0.69423 -0.0767,1.70873 -0.16691,2.25443 -0.15658,0.94732 -0.2103,0.99219 -1.18771,0.99219 h -1.02372 z m 12.84861,-3.56249 c -0.16632,-0.7855 -0.60505,-4.57425 -0.82723,-7.14375 l -0.1773,-2.05052 h -5.39287 -5.39287 v 2.08743 c 0,1.75914 0.36364,4.51832 0.93663,7.10684 0.13143,0.59371 0.14633,0.59531 5.55574,0.59531 h 5.42396 z m -35.33826,-28.28174 c 4e-5,-0.23888 0.2813,-0.50492 0.62501,-0.59118 0.50217,-0.12604 0.6561,-0.38426 0.78361,-1.31459 0.57128,-4.16794 3.58742,-7.509619 7.78573,-8.626049 0.64735,-0.17215 1.12448,-0.45673 1.12448,-0.6707 0,-0.4948 1.02337,-1.19224 1.48787,-1.014 0.20283,0.0778 0.43892,0.42098 0.52464,0.76254 0.12132,0.48336 0.48659,0.71716 1.64788,1.05475 2.04734,0.59518 2.82284,1.03324 4.35739,2.461349 1.37849,1.28288 2.71375,3.67277 2.97768,5.32951 0.30807,1.93389 0.38715,2.11667 0.91582,2.11667 0.28827,0 0.52413,0.1761 0.52413,0.39134 0,0.33822 -1.54432,0.40107 -11.37716,0.46302 -10.40192,0.0655 -11.37716,0.0344 -11.37708,-0.36266 z"
       id="path1" /></g></svg>
