<?xml version="1.0" encoding="UTF-8" standalone="no"?>
<svg
   width="2279.3472"
   height="991.50244"
   viewBox="0 0 175.74314 76.447218"
   version="1.1"
   id="svg5"
   xmlns="http://www.w3.org/2000/svg"
   xmlns:svg="http://www.w3.org/2000/svg">
  <defs
     id="defs5" />
  <g
     fill-rule="evenodd"
     clip-rule="evenodd"
     id="g5"
     style="fill:#ffffff"
     transform="translate(-8.5058622,-56.213997)">
    <path
       d="m 72.651,76.919 c 0,0 4.705,4.703 10.883,2.029 l -0.485,1.062 c 0,0 2.146,1.384 2.009,3.943 0,0 -0.205,2.906 -3.115,3.32 0,0 2.422,1.66 2.214,4.704 0,0 0.485,3.528 -8.091,11.347 0,0 -5.815,-5.396 -8.234,-12.732 0,0 -0.83,-3.248 2.904,-4.908 0,0 -2.559,-2.422 -1.247,-4.773 0,0 0.97,-1.87 2.976,-2.146 z m 0.644,2.26 c 0,0 -3.455,1.731 -2.836,3.876 0,0 0.693,2.767 4.496,3.112 0,0 -5.671,1.521 -3.044,6.5 0,0 -2.491,-0.412 -1.726,-4.98 0,0 -2.077,0.829 -1.11,2.974 0,0 2.975,7.057 6.99,11 0,0 4.148,-3.182 6.707,-9.338 0,0 0.417,-1.522 -0.762,-3.183 0,0 0.28,3.459 -1.934,4.15 0,0 1.797,-4.979 -0.97,-6.709 0,0 5.05,-0.07 4.636,-3.321 0,0 -0.485,-2.146 -2.283,-2.768 l -1.314,1.107 c 0,0 1.038,0.762 0.829,1.73 0,0 0.277,1.59 -3.043,1.59 l -1.247,1.105 -0.83,-1.521 c 0,0 -3.109,-0.137 -2.422,-2.558 0,0 0.485,-0.832 0.973,-1.176 z m -1.866,3.738 c 0.065,1.452 2.003,1.523 2.003,1.523 -1.938,-1.247 -0.756,-3.391 -0.756,-3.391 -1.386,0.415 -1.247,1.868 -1.247,1.868 z m 10.446,-0.901 c 0,0 0.898,2.629 -1.729,3.459 0,0 1.937,0.277 2.695,-1.592 0,0 0.28,-1.52 -0.966,-1.867 z m -7.105,6.432 c -0.166,-0.008 -0.292,-0.111 -0.445,-0.136 -0.056,-0.009 -0.454,0.01 -0.463,0.083 -0.069,0.659 1.682,0.88 1.43,-0.005 -0.181,-0.009 -0.349,0.061 -0.522,0.058 z m 3.389,0.275 c -0.165,-0.007 -0.29,-0.113 -0.442,-0.136 -0.056,-0.006 -0.457,0.01 -0.466,0.082 -0.068,0.664 1.679,0.883 1.43,-0.003 -0.181,-0.008 -0.345,0.06 -0.522,0.057 z m -2.115,2.632 c 0.268,0.031 0.579,0.194 0.538,-0.241 -0.03,-0.384 -0.506,-0.546 -0.826,-0.523 -0.24,0.019 -0.89,0.204 -0.65,0.583 0.151,0.249 0.696,0.15 0.938,0.181 z m -2.886,0.994 c 0.149,0.253 1.051,0.568 1.213,0.182 0.308,-0.736 -1.698,-1.011 -1.213,-0.182 z m 6.117,-0.272 c -0.103,-0.113 -0.494,0 -0.616,0.006 -0.308,0.016 -1.278,-0.108 -1.142,0.441 0.118,0.46 1.34,0.445 1.624,0.183 0.093,-0.086 0.243,-0.504 0.134,-0.63 z m -3.971,-11.93 1.869,3.53 2.351,-2.836 c 0,-10e-4 -1.801,0.553 -4.22,-0.694 z m -1.11,2.561 c 0.072,0.831 1.247,0.415 1.247,0.415 l -0.485,-1.175 c -0.762,0 -0.762,0.76 -0.762,0.76 z m 5.227,-0.152 -0.681,1.071 c 0,0 1.082,0.616 1.297,-0.191 0,-0.001 0.13,-0.747 -0.616,-0.88 z m 41.306,-3.791 c 2.01,0.275 2.973,2.146 2.973,2.146 1.318,2.351 -1.244,4.773 -1.244,4.773 3.734,1.66 2.908,4.908 2.908,4.908 -2.422,7.336 -8.234,12.732 -8.234,12.732 -8.576,-7.819 -8.094,-11.347 -8.094,-11.347 -0.209,-3.044 2.213,-4.704 2.213,-4.704 -2.902,-0.414 -3.109,-3.32 -3.109,-3.32 -0.139,-2.559 2.004,-3.943 2.004,-3.943 l -0.486,-1.062 c 6.182,2.674 10.887,-2.029 10.887,-2.029 z m -1.934,2.007 c 0.479,0.344 0.967,1.176 0.967,1.176 0.689,2.421 -2.422,2.558 -2.422,2.558 l -0.83,1.521 -1.248,-1.105 c -3.32,0 -3.043,-1.59 -3.043,-1.59 -0.205,-0.969 0.83,-1.73 0.83,-1.73 l -1.316,-1.107 c -1.793,0.622 -2.279,2.768 -2.279,2.768 -0.416,3.251 4.637,3.321 4.637,3.321 -2.768,1.73 -0.971,6.709 -0.971,6.709 -2.217,-0.691 -1.936,-4.15 -1.936,-4.15 -1.176,1.66 -0.76,3.183 -0.76,3.183 2.557,6.157 6.707,9.338 6.707,9.338 4.012,-3.943 6.986,-11 6.986,-11 0.969,-2.146 -1.105,-2.974 -1.105,-2.974 0.762,4.568 -1.73,4.98 -1.73,4.98 2.631,-4.98 -3.043,-6.5 -3.043,-6.5 3.803,-0.345 4.5,-3.112 4.5,-3.112 0.617,-2.145 -2.84,-3.876 -2.84,-3.876 z m 1.725,0.277 c 0,0 1.18,2.144 -0.758,3.391 0,0 1.938,-0.071 2.002,-1.523 0,0 0.14,-1.453 -1.244,-1.868 z m -10.166,2.834 c 0.762,1.869 2.695,1.592 2.695,1.592 -2.625,-0.831 -1.727,-3.459 -1.727,-3.459 -1.246,0.347 -0.968,1.867 -0.968,1.867 z m 7.55,4.507 c -0.252,0.885 1.5,0.664 1.432,0.005 -0.01,-0.073 -0.41,-0.092 -0.463,-0.083 -0.154,0.025 -0.281,0.127 -0.441,0.136 -0.182,0.003 -0.346,-0.067 -0.528,-0.058 z m -3.388,0.276 c -0.252,0.886 1.5,0.667 1.428,0.003 -0.006,-0.072 -0.408,-0.087 -0.461,-0.082 -0.154,0.022 -0.279,0.129 -0.443,0.136 -0.179,0.003 -0.343,-0.065 -0.524,-0.057 z m 3.576,2.509 c 0.24,-0.379 -0.41,-0.564 -0.65,-0.583 -0.322,-0.023 -0.795,0.139 -0.83,0.523 -0.041,0.435 0.273,0.272 0.539,0.241 0.244,-0.032 0.785,0.067 0.941,-0.181 z m 0.73,1.355 c 0.164,0.386 1.066,0.072 1.217,-0.182 0.484,-0.828 -1.523,-0.553 -1.217,0.182 z m -4.769,0.177 c 0.285,0.263 1.508,0.278 1.627,-0.183 0.133,-0.55 -0.838,-0.426 -1.143,-0.441 -0.121,-0.006 -0.52,-0.119 -0.615,-0.006 -0.109,0.126 0.041,0.544 0.131,0.63 z m -0.379,-11.867 2.35,2.836 1.869,-3.53 c -2.418,1.248 -4.219,0.694 -4.219,0.694 z m 4.564,1.108 -0.484,1.175 c 0,0 1.18,0.416 1.246,-0.415 0,0 0,-0.76 -0.762,-0.76 z m -5.078,1.487 c 0.215,0.808 1.297,0.191 1.297,0.191 l -0.682,-1.071 c -0.748,0.134 -0.615,0.88 -0.615,0.88 z M 87.779,63.086 c 0,0 4.151,4.89 10.236,4.796 0,0 4.98,0.094 9.498,-3.046 l -2.674,3.14 c 0,0 4.059,2.028 4.059,6.083 0,0 -0.09,4.613 -4.428,6.458 0,0 4.615,2.859 3.967,8.303 0,0 -1.477,8.299 -12.08,17.985 L 87.225,94.168 c 0,0 -6.089,-8.115 2.12,-13.927 0,0 -5.349,-1.568 -4.334,-8.023 0,0 0.183,-3.506 4.611,-4.889 z m 8.946,11.99 4.701,-5.997 c -3.594,1.662 -8.298,-0.368 -8.298,-0.368 z m -4.133,-1.388 c 0.209,1.44 2.264,0.511 2.264,0.511 l -1.337,-2.057 c -1.234,0.311 -0.927,1.546 -0.927,1.546 z m 8.652,0.651 c 1.109,-1.475 -0.555,-2.122 -0.555,-2.122 l -1.754,2.122 c 0.651,1.38 2.309,0 2.309,0 z M 90.36,68.436 c 0,0 -4.244,1.384 -3.781,5.903 0,0 0.46,5.07 7.562,5.07 0,0 -7.375,4.152 -3.228,12.636 0,0 -3.874,-2.673 -2.217,-8.579 0,0 -2.21,1.205 -1.934,5.168 0,0 -0.184,3.689 4.244,8.115 l 5.625,7.748 c 0,0 4.242,-4.982 6.548,-7.748 0,0 6.639,-9.406 1.66,-13.557 0,0 1.662,6.087 -2.58,8.761 0,0 3.781,-8.667 -2.861,-11.898 0,0 7.289,-0.09 7.934,-5.532 0,0 0.646,-3.598 -3.412,-5.72 l -1.566,1.754 c 0,0 1.66,2.857 0.273,4.149 0,0 -1.477,2.212 -4.701,0.922 l -1.568,2.766 -1.2,-2.491 c 0,0 -4.611,1.11 -4.428,-3.594 0,0 0.093,-1.292 1.567,-1.937 z m -2.124,6.363 c 1.387,4.241 4.892,2.489 4.892,2.489 -5.625,-1.474 -2.861,-7.192 -2.861,-7.192 -2.951,1.107 -2.031,4.703 -2.031,4.703 z m 15.588,-3.873 c 0,0 1.754,6.27 -4.703,7.192 0,0 3.873,1.57 5.996,-2.399 0,0 1.018,-3.869 -1.293,-4.793 z M 93.777,84.034 c -0.13,-0.017 -0.945,-0.291 -1.004,-0.089 -0.339,1.143 2.801,1.51 2.369,-0.095 -0.498,-0.072 -0.839,0.26 -1.365,0.184 z m 6.543,0.904 c 0.258,-0.197 0.596,-0.64 0.258,-0.908 -0.365,-0.291 -0.887,0.239 -1.227,0.318 -0.297,0.07 -0.736,-0.112 -0.99,0.14 -0.225,0.224 -0.199,0.409 0.113,0.558 0.44,0.207 1.464,0.174 1.846,-0.108 z m -6.994,2.947 c -0.205,-0.207 -0.836,0.069 -1.163,0.062 -0.323,-0.006 -0.833,-0.12 -1.069,0.179 -0.093,0.115 -0.078,0.532 0.015,0.65 0.166,0.202 0.666,0.232 1.169,0.14 0.756,-0.143 1.515,-0.56 1.048,-1.031 z m 2.752,0.52 c 0.354,0.018 2.184,-0.123 1.225,-0.851 -0.364,-0.281 -0.886,0.072 -1.29,-0.022 -0.348,-0.082 -0.852,-0.461 -0.998,0.094 -0.159,0.607 0.668,0.755 1.063,0.779 z m 5.951,-1.067 c -0.311,-0.338 -0.951,0.143 -1.344,0.102 -0.311,-0.036 -0.9,-0.362 -1.014,0.135 -0.133,0.594 0.633,0.552 1.023,0.552 0.242,0.001 1.939,-0.131 1.335,-0.789 z m -8.752,3.287 c -0.498,0.771 2.326,1.395 2.102,0.14 -0.009,-0.076 -0.874,-0.059 -0.939,0.033 -0.175,-0.024 -1.058,-0.34 -1.163,-0.173 z m 5.827,0.187 c -0.305,0.016 -0.572,-0.242 -0.82,-0.227 -0.682,0.036 -0.404,0.806 -0.01,1.023 0.557,0.307 1.895,0.381 2.096,-0.427 0.251,-0.989 -0.841,-0.389 -1.266,-0.369 z"
       id="path2"
       style="fill:#ffffff" />
    <path
       d="m 103.273,92.877 c -0.463,0.275 -1.154,0.137 -1.154,0.137 -0.553,-0.599 -1.061,-0.137 -1.061,-0.137 -0.969,0.552 -1.613,0.092 -1.613,0.092 -1.336,-0.554 -1.754,0.783 -1.754,0.783 -0.18,1.429 -0.879,1.429 -0.879,1.429 -0.641,0 -1.054,-1.056 -1.054,-1.056 -0.19,-0.634 -0.6,-1.111 -1.524,-0.325 -0.388,0.328 -0.737,-0.325 -0.737,-0.325 -0.463,-0.647 -1.013,0 -1.013,0 -0.604,0.415 -1.017,0 -1.017,0 -1.567,-0.738 -3.275,1.687 -3.275,1.687 -1.269,0.09 -2.798,-0.118 -3.458,-0.118 -1.243,0 -1.8,-0.507 -1.8,-0.507 L 82.082,94.35 c -0.591,0.213 -1.023,-0.1 -1.576,-0.051 -0.311,0.028 -0.834,0.632 -1.066,-0.006 -0.439,0 -0.585,0.291 -1.095,0.197 -0.239,-0.045 -0.23,-0.216 -0.479,-0.275 -0.199,-0.05 -0.482,0 -0.69,0 -0.224,0 -0.476,-0.037 -0.697,0 -0.193,0.027 -0.423,0.224 -0.553,0.207 -0.576,-0.076 -0.383,-0.317 -0.952,-0.139 -0.224,0.067 -0.178,0.299 -0.5,0.275 -0.302,-0.021 -0.187,-0.315 -0.398,-0.365 -0.535,-0.128 -0.587,0.27 -0.917,0.365 -0.512,0.154 -0.335,-0.065 -0.83,-0.259 -0.383,-0.153 -0.852,-0.1 -1.244,-0.016 0,0 -0.97,0.297 -1.94,0.253 l -0.23,0.002 c 0,0 -5.531,0.549 -7.239,0.042 l -2.534,0.51 1.793,2.487 3.598,0.047 c 0,0 -3.181,2.445 -5.071,2.77 l -0.46,0.322 1.383,2.213 c 0,0 4.518,-0.922 6.412,-2.674 0,0 2.117,-1.799 2.257,-2.168 0,0 3.411,0 9.593,0.094 0,0 12.22,0.461 15.911,0.504 0,0 8.485,-0.184 12.956,-0.598 0,0 15.129,0.369 19.971,-0.275 0,0 2.766,-0.094 3.457,0.092 l 0.463,-2.445 0.047,-0.185 -8.648,-0.527 c -0.574,-0.41 -1.043,-0.463 -1.432,-0.309 -0.496,0.192 -0.312,0.412 -0.828,0.259 -0.326,-0.1 -0.383,-0.494 -0.918,-0.367 -0.211,0.05 -0.096,0.345 -0.395,0.367 -0.326,0.023 -0.283,-0.207 -0.5,-0.275 -0.572,-0.179 -0.383,0.062 -0.955,0.139 -0.131,0.016 -0.363,-0.181 -0.551,-0.21 -0.223,-0.033 -0.475,0 -0.695,0 -0.213,0 -0.492,-0.048 -0.693,0 -0.252,0.064 -0.24,0.232 -0.479,0.277 -0.512,0.098 -0.656,-0.196 -1.098,-0.193 -0.23,0.638 -0.75,0.03 -1.064,0.003 -0.688,-0.064 -1.184,0.259 -1.797,0.458 -0.588,0.191 -1.238,0.238 -1.854,0.236 -1.262,-0.001 -2.559,0.252 -3.799,-0.051 -0.125,-0.031 -0.361,0.015 -0.377,-0.115 -0.299,-2.889 -2.096,-2.089 -2.096,-2.089 z"
       id="path3"
       style="fill:#ffffff" />
    <path
       d="m 89.75,95.892 c 0.504,-0.25 0.199,-0.707 0.6,-1.101 0.731,-0.72 1.117,0.849 1.545,1.132 0.528,0.35 0.609,-0.327 0.771,-0.663 0.403,-0.851 0.593,0.059 1.125,0.312 0.684,0.322 0.708,-0.97 1.287,-0.62 0.429,0.262 0.274,1.114 0.678,1.405 0.504,0.365 1.307,0.312 1.801,-0.047 0.51,-0.375 0.432,-1.495 1.072,-1.69 0.488,-0.148 0.703,0.453 1.098,0.583 0.604,0.209 0.777,-0.393 1.098,-0.758 0.537,-0.612 0.547,0.019 0.789,0.416 0.533,0.884 0.912,-0.372 1.322,-0.612 0.781,-0.454 0.982,0.886 1.301,1.257 0.453,0.526 1.178,0.583 1.814,0.646 1.16,0.109 2.32,0.131 3.492,0.137 0.615,0.002 1.266,-0.044 1.854,-0.236 0.613,-0.201 1.109,-0.521 1.797,-0.46 0.314,0.028 0.834,0.634 1.064,-0.001 0.441,-0.008 0.586,0.289 1.098,0.193 0.238,-0.047 0.227,-0.216 0.479,-0.277 0.201,-0.05 0.48,0 0.693,0 0.221,0 0.473,-0.033 0.695,0 0.188,0.031 0.42,0.227 0.551,0.21 0.572,-0.076 0.383,-0.321 0.955,-0.142 0.217,0.072 0.174,0.301 0.5,0.277 0.299,-0.021 0.184,-0.314 0.395,-0.365 0.535,-0.128 0.592,0.267 0.918,0.365 0.516,0.154 0.332,-0.065 0.828,-0.26 0.389,-0.149 0.857,-0.1 1.25,-0.018 0,0 -0.303,0.441 3.615,0.301 l 3.875,0.183 -0.23,0.742 c 0,0 -7.422,0.137 -9.684,0.459 0,0 -6.045,0.092 -7.148,0.047 0,0 -9.961,-0.094 -10.604,0.182 0,0 -8.488,0.418 -11.162,0.049 0,0 -15.404,-0.6 -22.506,-0.324 0,0 -2.071,2.768 -7.979,4.613 l -0.507,-0.693 c 0,0 5.028,-1.707 5.995,-3.318 l -0.92,-1.107 c 0,0 -3.138,0.23 -4.058,-0.369 l -0.374,-0.506 8.209,-0.142 c 0.971,0.047 1.94,-0.253 1.94,-0.253 0.392,-0.084 0.861,-0.134 1.244,0.017 0.494,0.194 0.317,0.412 0.83,0.261 0.33,-0.096 0.383,-0.494 0.917,-0.365 0.211,0.048 0.097,0.344 0.398,0.365 0.323,0.022 0.276,-0.208 0.5,-0.278 0.569,-0.176 0.376,0.065 0.952,0.141 0.13,0.014 0.36,-0.182 0.553,-0.209 0.221,-0.031 0.473,0 0.697,0 0.208,0 0.491,-0.049 0.69,0 0.249,0.062 0.24,0.231 0.479,0.278 0.51,0.093 0.656,-0.198 1.095,-0.198 0.232,0.639 0.755,0.031 1.066,0.005 0.553,-0.048 0.985,0.264 1.576,0.053 l 0.852,0.183 c 0,0 0.557,0.51 1.8,0.51 0,0 3.458,0.091 3.875,0 0.339,-0.114 0.728,-0.147 1.057,-0.272 0.034,-0.015 0.056,-0.027 0.087,-0.038 z"
       fill="#fff"
       id="path4"
       style="fill:#ffffff" />
    <path
       d="m 77.282,69.014 a 5.622,5.622 0 0 1 -5.622,-5.625 5.62,5.62 0 0 1 5.622,-5.623 c 1.142,0 2.198,0.347 3.082,0.928 a 7.43,7.43 0 0 0 -5.547,-2.48 7.472,7.472 0 0 0 0,14.941 7.47,7.47 0 0 0 6.614,-3.996 c -1.034,1.129 -2.502,1.855 -4.149,1.855 z m -54.62,42.31 c 0,0 -6.735,2.764 -7.012,4.334 0,0 -1.287,1.938 3.785,1.477 0,0 15.217,-1.477 15.771,5.348 0,0 0.187,2.766 -2.768,5.072 0,0 -6.638,6.273 -18.444,4.244 0,0 -5.349,-0.369 -5.165,-3.506 0,0 0.83,-1.475 2.857,0 0,0 10.793,2.768 15.958,-1.566 0,0 2.304,-2.213 0.644,-3.229 0,0 -3.042,-1.568 -7.102,-1.66 0,0 -12.08,1.383 -12.633,-3.504 0,0 -1.014,-4.246 6.364,-8.303 0,0 10.884,-5.258 20.29,-4.889 0,0 5.167,-1.383 5.535,2.953 0,0 -1.847,4.148 -8.669,4.518 0,0 -6.735,0.275 -7.379,-1.383 -0.002,0 -0.278,-0.46 -2.032,0.094 z m 8.301,-0.74 c 0,0 1.938,-0.275 1.474,-1.658 0,0 -2.396,-1.109 -4.518,0.74 0,0 -0.83,1.475 3.044,0.918 z m 22.874,9.686 c 0,0 0.646,-2.674 -6.735,-1.752 0,0 -10.973,1.936 -10.79,9.5 0,0 1.106,5.992 7.472,3.135 0,0 4.148,-2.213 5.165,-2.859 0,0 0.367,4.797 5.258,4.336 0,0 3.228,0.275 6.178,-3.689 0,0 2.951,-3.781 3.598,-3.596 0,0 1.567,-0.186 0.55,1.475 0,0 -2.304,3.688 0.924,4.426 0,0 3.504,1.199 5.538,-1.936 0,0 3.131,-4.797 4.975,-4.797 0,0 0.74,0.275 -0.46,1.938 0,0 -1.75,4.795 3.138,5.164 0,0 4.794,0.461 5.625,-1.658 0,0 0.923,-2.033 -1.568,-0.738 0,0 -3.411,2.027 -2.121,-1.014 0,0 5.165,-6.736 0.184,-8.58 0,0 -2.674,-1.199 -4.611,0.184 0,0 -2.858,3.045 -4.148,3.23 0,0 -1.014,0.184 -1.204,-2.029 0,0 -1.013,-3.318 -5.161,-1.291 0,0 -2.677,2.309 -7.565,8.211 0,0 -4.518,4.607 -3.318,0.09 0,0 3.228,-5.076 -0.19,-6.273 0,0 -1.934,-0.92 -4.885,2.123 0,0 -5.995,5.258 -7.469,5.258 0,0 -1.844,-0.275 0.83,-3.691 0,0 2.858,-3.875 7.839,-4.242 0,-0.004 2.951,-0.004 2.951,-0.925 z m 40.767,-1.661 c -1.107,3.135 1.197,0.736 1.197,0.736 5.718,-2.951 5.718,3.045 5.718,3.045 1.107,1.477 3.32,-0.365 3.32,-0.365 1.107,-0.744 2.492,-2.125 2.492,-2.125 3.689,-3.318 6.088,-0.83 6.088,-0.83 0.553,1.477 1.938,0.369 1.938,0.369 4.703,-1.383 3.777,2.213 3.777,2.213 -1.383,0.373 -0.645,1.938 -0.645,1.938 0.555,1.938 3.414,-1.107 3.414,-1.107 1.658,-0.457 0.832,-2.766 0.832,-2.766 0.09,-1.846 2.396,-1.107 2.396,-1.107 1.566,1.197 3.781,0.275 3.781,0.275 3.684,-0.184 3.316,1.752 3.316,1.752 1.385,1.389 0,2.953 0,2.953 -2.58,2.4 -2.674,5.072 -2.674,5.072 0.188,3.045 6.365,-4.15 6.365,-4.15 4.705,-6.641 8.855,-5.627 8.855,-5.627 3.781,-0.088 2.768,5.627 2.768,5.627 l 4.701,-4.336 c 1.662,-2.305 4.059,-1.566 4.059,-1.566 5.168,1.291 1.293,7.654 1.293,7.654 -1.014,2.586 1.477,1.566 1.477,1.566 1.752,-2.486 5.902,-6.363 5.902,-6.363 6.639,-6.086 9.959,-4.607 9.959,-4.607 2.584,0.551 0.367,2.58 0.367,2.58 -1.287,1.844 -0.367,5.164 -0.367,5.164 l 9.316,0.094 -2.768,3.23 -7.838,-0.098 c -1.291,2.768 -4.982,2.768 -4.982,2.768 -4.514,-0.461 -4.887,-4.148 -4.887,-4.148 -0.74,-0.094 -3.322,2.768 -3.322,2.768 -1.752,2.305 -6.918,0.551 -6.918,0.551 -2.764,-0.828 -1.01,-5.256 -1.01,-5.256 -0.834,-0.738 -4.982,4.057 -4.982,4.057 -2.307,3.414 -5.262,2.029 -5.262,2.029 -3.504,-1.018 -1.379,-5.254 -1.379,-5.254 1.287,-2.123 0.922,-2.674 0.922,-2.674 -1.939,1.104 -5.35,5.348 -5.35,5.348 -7.012,6.824 -11.621,1.568 -11.621,1.568 -2.213,-3.322 2.857,-7.656 2.857,-7.656 -1.105,-0.83 -2.119,0.096 -2.119,0.096 -3.135,5.715 -8.854,5.162 -8.854,5.162 -1.57,2.768 -5.352,3.965 -5.352,3.965 -9.773,2.582 -7.469,-5.35 -7.469,-5.35 -2.494,0.738 -2.861,-0.09 -2.861,-0.09 -0.186,0.645 -1.938,0.92 -1.938,0.92 0,0 -3.687,4.98 -7.931,5.074 -4.241,0.09 -5.442,-2.398 -4.795,-6.549 0.644,-4.15 6.178,-12.27 6.178,-12.27 -0.83,0.463 -1.751,-0.182 -1.751,-0.182 -0.739,-1.566 4.242,-3.598 4.242,-3.598 3.969,-1.752 2.674,0.832 2.674,0.832 z m -2.86,5.903 c -1.66,5.068 0.276,5.535 0.276,5.535 1.844,-0.094 3.321,-3.506 3.321,-3.506 0.463,-1.842 -1.57,-4.15 -1.57,-4.15 -1.197,-0.28 -2.027,2.121 -2.027,2.121 z m 18.074,-0.739 c -2.764,7.287 0.83,5.627 0.83,5.627 2.771,-1.66 2.771,-3.783 2.771,-3.783 0.09,-1.289 -1.385,-3.506 -1.385,-3.506 -1.013,-0.644 -2.216,1.662 -2.216,1.662 z m 59.953,-2.949 c 0,0 -3.229,0.92 -3.32,3.688 0,0 1.566,0.832 2.861,-0.275 0,-10e-4 0.555,-2.585 0.459,-3.413 z"
       id="path5"
       style="fill:#ffffff" />
  </g>
</svg>
