<?xml version="1.0" encoding="UTF-8" standalone="no"?>
<svg
   width="385.10986"
   height="486.00006"
   viewBox="0 0 29.692895 37.471771"
   version="1.1"
   id="svg5"
   xmlns="http://www.w3.org/2000/svg"
   xmlns:svg="http://www.w3.org/2000/svg">
  <defs
     id="defs5" />
  <path
     style="fill:currentColor;stroke:none;stroke-width:0.276055"
     d="m 10.297709,19.644881 c -4.1097397,0.55341 -8.2693197,2.53901 -9.67656975,6.71964 -0.54692,1.62478 -0.54898,3.27285 -0.54898,4.96669 0,1.79778 -0.52189,4.47805 1.24167005,5.62654 0.78849,0.5135 1.73209,0.43576 2.62943,0.43576 h 4.52845 12.3437097 c 2.0405,0 4.17807,0.18408 6.20837,-0.0124 3.48709,-0.33745 2.55639,-5.07238 2.55639,-7.51069 0,-5.78111 -4.6331,-9.76877 -10.22555,-10.22555 0.79724,-0.79733 1.51943,-1.65167 2.08715,-2.62943 0.30945,-0.53294 0.49969,-1.26225 0.89395,-1.7308 0.47693,-0.56679 1.27745,-0.57181 1.70037,-1.33686 0.55438,-1.00288 0.69412,-2.6938 0.15194,-3.72503 -0.24232,-0.4608804 -0.87436,-0.6407904 -0.94851,-1.1689104 -0.33616,-2.39431 -0.24113,-4.86083 -1.86251,-6.86545 -1.75955,-2.17546005 -4.34787,-2.29778005 -6.91605,-2.05750005 -0.6353,0.0594 -1.26376,-0.18097 -1.89903,-0.12129 -1.96516,0.18462 -3.7340897,1.35613005 -4.9119697,2.90919005 -0.86888,1.14563 -1.37653,2.5767 -1.43961,4.01718 -0.0331,0.75573 0.12892,1.59265 0.0261,2.33439 -0.0571,0.41156 -0.66446,0.7603304 -0.84114,1.1715204 -0.46869,1.09074 -0.2567,2.75519 0.40019,3.72496 0.39295,0.58011 1.12801,0.66023 1.50983,1.17838 0.3436,0.46629 0.51335,1.09588 0.81606,1.59718 0.61176,1.01311 1.34203,1.86819 2.1763097,2.70247 m 8.98388,-14.5856704 c 0.71008,-0.0962 1.25512,0.37683 1.62518,0.92726 0.7889,1.17337 0.57702,2.54963 0.73294,3.8711 0.32508,2.7551804 -1.01421,5.8420004 -2.77657,7.8882204 -0.83338,0.96761 -2.0747,1.87704 -3.37961,2.03277 -4.03003,0.48094 -6.6738497,-3.83388 -7.3624097,-7.29157 -0.34165,-1.71559 -0.30866,-3.3779404 0.82665,-4.8206104 0.39992,-0.50818 1.4119297,-1.43201 2.1465497,-1.15494 1.01677,0.38348 -0.39543,1.47998 0.37552,1.76716 0.47718,0.17774 1.42249,-0.18447 1.89554,-0.32006 1.20748,-0.34613 2.43346,-0.77113 3.5059,-1.43775 0.7329,-0.45556 1.53869,-1.34349 2.41031,-1.46158 m 1.82599,16.7038204 c -1.37677,3.54868 -2.86635,7.05639 -4.28015,10.59075 -0.34085,0.8521 -0.67675,1.70638 -1.02277,2.55639 -0.11295,0.27742 -0.2227,0.76193 -0.54814,0.85325 -1.43683,0.40318 -1.82381,-1.96308 -2.22715,-2.9714 -0.98435,-2.46079 -1.98108,-4.91635 -2.96537,-7.37701 -0.4831997,-1.20795 -1.1461997,-2.45906 -1.4461997,-3.72502 l 3.4328597,-0.79368 2.92159,0.57169 2.55639,-0.60489 1.31471,0.30455 2.26423,0.59537 m -9.42206,0.48293 c -0.23876,0.058 -0.44137,0.23848 -0.53016,0.46692 -0.21798,0.56084 -0.26284,2.56795 0.31865,2.88783 0.60388,0.3322 1.48996,-0.29349 2.11049,-0.35956 0.43077,-0.0459 0.80041,0.31408 1.24167,0.31408 0.47072,0 0.84956,-0.39661 1.31471,-0.30326 0.5731,0.11501 1.30818,0.57085 1.8979,0.39541 0.75895,-0.22579 0.65391,-2.23276 0.48074,-2.86174 -0.0588,-0.21371 -0.20859,-0.39025 -0.4077,-0.48783 -0.63159,-0.30955 -1.47083,0.35701 -2.11701,0.38131 -0.40336,0.0152 -0.74792,-0.31859 -1.16864,-0.31859 -0.44311,0 -0.83176,0.40129 -1.25407,0.3226 -0.56982,-0.10617 -1.30193,-0.57908 -1.88658,-0.43717 m -6.5005897,0.83178 v 12.7089 c -0.84635,0 -2.46338,0.31079 -3.12509,-0.31723 -0.72521,-0.6883 -0.38081,-2.49657 -0.38081,-3.40779 0,-3.22759 0.15873,-7.27519 3.5059,-8.98388 m 19.4285597,0.073 c 3.20585,2.00314 3.35982,5.6209 3.35982,8.98387 0,0.89847 0.33516,2.65521 -0.38081,3.33475 -0.65215,0.61895 -2.219,0.31723 -3.05205,0.31723 v -8.83779 -2.55639 l 0.073,-1.24167 m -10.0792,3.91877 c -1.14263,0.3608 -0.53611,2.10857 0.58376,1.72697 1.10226,-0.3756 0.53111,-2.079 -0.58376,-1.72697 m -0.073,3.36637 c -1.08546,0.42028 -0.4008,2.12331 0.65702,1.698 1.13003,-0.45435 0.46917,-2.13406 -0.65702,-1.698 z"
     id="path1-6" />
</svg>
